<?xml version="1.0" encoding="UTF-8"?>
<svg width="1080px" height="1080px" viewBox="0 0 1080 1080" version="1.1" xmlns="http://www.w3.org/2000/svg" xmlns:xlink="http://www.w3.org/1999/xlink">
    <!-- Generator: Sketch 55.2 (78181) - https://sketchapp.com -->
    <title>ETH_isoceles_small</title>
    <desc>Created with Sketch.</desc>
    <g id="ETH_isoceles_small" stroke="none" stroke-width="1" fill="none" fill-rule="evenodd">
        <g id="Group-2" transform="translate(40.000000, 40.000000)">
            <circle id="Oval" fill="#000000" cx="500" cy="500" r="500"></circle>
            <polygon id="Path-9" fill="#FFFFFF" transform="translate(624.722838, 728.381375) scale(-1, 1) translate(-624.722838, -728.381375) " points="747.228381 696.724815 502.217295 553.215078 747.228381 903.547672"></polygon>
            <path d="M747.228381,97.5717341 C747.228381,98.9775078 747.228381,198.787441 747.228381,397.001535 L502.217295,506.651885 C665.558019,232.526011 747.228381,96.1659604 747.228381,97.5717341 Z" id="Path-4" fill="#FFFFFF" transform="translate(624.722838, 302.106430) scale(-1, 1) translate(-624.722838, -302.106430) "></path>
            <polygon id="Path-8" fill="#FFFFFF" transform="translate(624.722838, 529.379157) scale(-1, 1) translate(-624.722838, -529.379157) " points="747.228381 401.330377 747.228381 657.427938 502.217295 510.935917"></polygon>
            <polygon id="Path-9" fill="#FFFFFF" points="493.348115 696.724815 248.337029 553.215078 493.348115 903.547672"></polygon>
            <path d="M493.348115,97.5717341 C493.348115,98.9775078 493.348115,198.751886 493.348115,396.894869 L248.337029,506.651885 C411.677753,232.526011 493.348115,96.1659604 493.348115,97.5717341 Z" id="Path-4" fill="#FFFFFF"></path>
            <polygon id="Path-8" fill="#FFFFFF" points="493.348115 401.330377 493.348115 657.427938 248.337029 510.935917"></polygon>
        </g>
    </g>
</svg>