<?xml version="1.0" encoding="UTF-8"?>
<svg width="4000px" height="4000px" viewBox="0 0 4000 4000" version="1.1" xmlns="http://www.w3.org/2000/svg" xmlns:xlink="http://www.w3.org/1999/xlink">
    <!-- Generator: Sketch 55.2 (78181) - https://sketchapp.com -->
    <title>ETH_isoceles</title>
    <desc>Created with Sketch.</desc>
    <g id="ETH_isoceles" stroke="none" stroke-width="1" fill="none" fill-rule="evenodd">
        <g id="Group-2" transform="translate(80.000000, 80.000000)">
            <circle id="Oval" fill="#000000" cx="1920" cy="1920" r="1920"></circle>
            <polygon id="Path-9" fill="#FFFFFF" transform="translate(2397.277883, 2796.521739) scale(-1, 1) translate(-2397.277883, -2796.521739) " points="2867.29679 2674.84638 1927.25898 2123.25142 2867.29679 3469.79206"></polygon>
            <path d="M2867.29679,373.878759 C2867.29679,379.279198 2867.29679,762.710347 2867.29679,1524.17221 L1927.25898,1945.40643 C2553.95085,892.320876 2867.29679,368.47832 2867.29679,373.878759 Z" id="Path-4" fill="#FFFFFF" transform="translate(2397.277883, 1159.621928) scale(-1, 1) translate(-2397.277883, -1159.621928) "></path>
            <polygon id="Path-8" fill="#FFFFFF" transform="translate(2397.277883, 2030.699433) scale(-1, 1) translate(-2397.277883, -2030.699433) " points="2867.29679 1538.90359 2867.29679 2522.49527 1927.25898 1959.86464"></polygon>
            <polygon id="Path-9" fill="#FFFFFF" points="1894.59357 2674.84638 954.555766 2123.25142 1894.59357 3469.79206"></polygon>
            <path d="M1894.59357,373.878759 C1894.59357,379.279198 1894.59357,762.573758 1894.59357,1523.76244 L954.555766,1945.40643 C1581.24764,892.320876 1894.59357,368.47832 1894.59357,373.878759 Z" id="Path-4" fill="#FFFFFF"></path>
            <polygon id="Path-8" fill="#FFFFFF" points="1894.59357 1538.90359 1894.59357 2522.49527 954.555766 1959.86464"></polygon>
        </g>
    </g>
</svg>